<svg width="62" height="57" viewBox="0 0 62 57" fill="none" xmlns="http://www.w3.org/2000/svg">
<path d="M38.9414 51.4521C39.016 51.5386 39.0906 51.6496 39.1631 51.7939C39.379 52.2241 39.5056 52.793 39.5869 53.3535C39.6648 53.891 39.7326 54.5353 39.6416 55.0176C39.5978 55.2496 39.5342 55.3413 39.5107 55.3662C39.5035 55.3739 39.4987 55.3782 39.4873 55.3828C39.4736 55.3884 39.4287 55.4025 39.335 55.4023C39.2672 55.402 39.2299 55.3941 39.2119 55.3887C39.2002 55.3691 39.1776 55.3218 39.1543 55.2275C39.1154 55.0704 39.0953 54.863 39.0879 54.5967C39.0843 54.4664 39.0839 54.3363 39.083 54.1963C39.0822 54.0623 39.0813 53.9149 39.0752 53.7744C39.0614 53.455 39.0226 53.1198 38.9902 52.8281C38.9563 52.5215 38.9272 52.2472 38.9189 51.9863C38.9123 51.776 38.9203 51.6002 38.9414 51.4521ZM30.1855 50.8633C30.4015 51.7462 30.434 52.6792 30.4443 53.707L30.459 55.126C30.4603 55.1953 30.4481 55.2285 30.4434 55.2393C30.4386 55.2499 30.4324 55.2598 30.4199 55.2705C30.3885 55.2973 30.3077 55.3379 30.1855 55.3379C30.0633 55.3379 29.9825 55.2973 29.9512 55.2705C29.9387 55.2598 29.9325 55.2499 29.9277 55.2393C29.923 55.2284 29.9108 55.1951 29.9121 55.126V55.125C29.9427 53.513 29.8739 52.1357 30.1855 50.8633ZM48.4824 48.3711C48.7709 48.5503 49.0239 48.7345 49.2354 48.9346L49.4326 49.1406C49.9622 49.754 50.4241 50.423 50.9404 51.1494L50.9414 51.1504C50.9934 51.2236 51.0041 51.269 51.0068 51.2852C51.0095 51.3008 51.0088 51.3145 51.0029 51.333C50.9882 51.3796 50.9294 51.4765 50.7891 51.5596C50.6511 51.6411 50.5079 51.6647 50.4062 51.6494C50.3309 51.638 50.2418 51.6034 50.1514 51.4619C49.7185 50.7835 49.3277 50.2222 48.9629 49.5938L48.9619 49.5928C48.8267 49.3603 48.6886 49.1004 48.5879 48.8408C48.5124 48.6464 48.4714 48.4836 48.4551 48.3555C48.4636 48.3606 48.4731 48.3653 48.4824 48.3711ZM38.5068 51.1924C38.505 51.1921 38.5027 51.1927 38.501 51.1924L38.5127 51.1191L38.5068 51.1924ZM47.9785 47.8193H47.9775L48.0508 47.5664L48.0518 47.5654L47.9785 47.8193ZM35.1631 12.8633C38.0233 11.3455 41.2907 11.43 43.4453 13.3223C48.0327 17.3527 49.018 23.3167 48.4414 29.1084C47.8658 34.8899 45.748 40.2771 44.4297 42.8271L44.4023 42.8809C43.6214 44.3855 43.2785 44.8253 42.8945 45.0283C42.7096 45.1261 42.4476 45.2006 41.9766 45.2324C41.4951 45.2649 40.8787 45.249 40.0068 45.2158C38.8116 45.1706 34.6633 45.1318 30.0186 43.7852C25.3707 42.4376 20.3484 39.8151 17.291 34.6875C13.9869 29.1464 15.0463 24.7153 17.5723 22.3545C20.1431 19.9522 24.5003 19.4102 28.4277 22.1963L29.9775 23.2959L30.0059 21.3955C30.0665 17.3718 32.3325 14.3655 35.1631 12.8633ZM14.4072 41.8301H14.4277C14.4463 41.8312 14.4749 41.8325 14.5107 41.8379C14.5489 41.8437 14.5867 41.8534 14.6211 41.8623C14.67 42.0206 14.6375 42.1837 14.4814 42.4297C14.3042 42.7091 14.0278 42.9848 13.7109 43.2617L13.3818 43.54C12.8406 43.9875 12.2827 44.2603 11.6504 44.3994C11.9928 43.748 12.4613 43.2069 13.1221 42.6182C13.3988 42.3718 13.632 42.1695 13.8711 42.0215C14.1025 41.8782 14.2723 41.8301 14.4072 41.8301ZM54.5078 41.8115C54.8988 41.8162 55.2988 41.8425 55.7227 41.873C56.1367 41.9028 56.5812 41.9364 57.0166 41.9492V41.9502C57.1983 41.9555 57.2791 42.0189 57.3311 42.083C57.4007 42.1689 57.4571 42.3144 57.4561 42.4883C57.4549 42.6646 57.3962 42.7796 57.3535 42.8271C57.3362 42.8464 57.2959 42.8942 57.1309 42.8799L56.4766 42.8203C55.8232 42.7557 55.1749 42.6707 54.5664 42.5117C54.0234 42.3699 53.5559 42.1765 53.1709 41.9209C53.5761 41.8337 54.0198 41.8057 54.5078 41.8115ZM57.6738 32.9854C58.2563 32.9122 58.7643 32.8455 59.2227 32.8848C59.6551 32.9218 59.9017 33.0445 60.0635 33.2412L60.0801 33.2617C60.1089 33.3 60.1232 33.3263 60.1289 33.3408C60.1321 33.3488 60.1333 33.354 60.1338 33.3564C60.1335 33.3584 60.1325 33.3639 60.1289 33.373C60.1221 33.3901 60.1053 33.425 60.0645 33.4746H60.0635C59.9138 33.6564 59.5976 33.8194 59.0439 33.8662C58.5095 33.9114 57.9128 33.8316 57.4434 33.707H57.4414C56.9368 33.574 56.5691 33.5075 56.1729 33.3662C56.1574 33.3607 56.1428 33.3532 56.1279 33.3477C56.1889 33.3226 56.2548 33.2985 56.3252 33.2744C56.7557 33.127 57.2452 33.0408 57.6748 32.9863L57.6738 32.9854ZM3.00391 28.9561C3.87337 28.8659 4.78452 28.916 5.5332 29.0332L5.63672 29.0508C5.64325 29.0555 5.65555 29.0644 5.67188 29.082C5.72 29.1341 5.76639 29.2128 5.79297 29.291V29.292C5.79771 29.3065 5.80056 29.3197 5.80371 29.3301C5.80049 29.3407 5.79793 29.3539 5.79297 29.3691C5.76602 29.4493 5.71963 29.5293 5.67188 29.5811C5.6572 29.5969 5.64516 29.6045 5.63867 29.6094C4.86917 29.7379 3.91292 29.7973 3.00293 29.7031C2.39736 29.6405 1.86092 29.5132 1.42285 29.3291C1.86113 29.1448 2.39836 29.0189 3.00391 28.9561ZM56.1641 22.2832C56.1633 22.2843 56.1631 22.2852 56.1631 22.2852V22.2842L56.1641 22.2822V22.2832ZM59.1973 21.0127L59.293 21.0361C59.4708 21.1034 59.5624 21.2281 59.5908 21.3242C59.6045 21.3707 59.6046 21.413 59.5957 21.4502C59.5872 21.4854 59.5645 21.5406 59.499 21.6094V21.6104C59.3859 21.729 59.1895 21.8397 58.8525 21.9297C58.5077 22.0217 58.1394 22.0628 57.7031 22.1211H57.7021C57.2636 22.1798 56.7844 22.1675 56.3594 22.082C56.6829 21.7862 57.1321 21.5363 57.6143 21.3643C57.9721 21.2367 58.3157 21.1155 58.6475 21.0488C58.9043 20.9973 59.0816 20.9946 59.1973 21.0127ZM6.89746 19.4492C7.30938 19.4751 7.66331 19.5568 8.15332 19.6289H8.1543C9.07673 19.7642 9.94711 19.9215 10.6113 20.25L10.6348 20.2607C10.6866 20.2889 10.7125 20.3123 10.7236 20.3242C10.7354 20.3369 10.7388 20.3448 10.7402 20.3486C10.7433 20.3571 10.756 20.4058 10.7236 20.5C10.6908 20.5953 10.623 20.6985 10.5303 20.7773C10.44 20.854 10.3495 20.8893 10.2734 20.8965H10.2725C9.97562 20.9249 9.58617 20.8586 9.12109 20.6953C8.77964 20.5754 8.43698 20.4175 8.11133 20.252L7.79199 20.085C7.42412 19.8871 7.11986 19.7423 6.81836 19.5479C6.76373 19.5126 6.71487 19.477 6.66992 19.4443C6.73787 19.4431 6.81344 19.444 6.89746 19.4492ZM15.9863 11.4336C16.9363 12.2687 17.7845 13.3327 18.6445 14.4238L18.6533 14.4346C18.7325 14.5402 18.741 14.6171 18.7373 14.665C18.7324 14.728 18.7026 14.7947 18.6543 14.8447C18.6065 14.8941 18.565 14.9033 18.5488 14.9043C18.5484 14.9043 18.4851 14.9138 18.3613 14.8018H18.3604C17.3766 13.9124 16.5358 12.7044 15.9863 11.4336ZM26.3877 5.59766C26.6107 5.93517 26.8361 6.30031 27.082 6.68945L27.084 6.69141C27.2412 6.93866 27.4141 7.17127 27.5527 7.36035C27.7003 7.56173 27.8145 7.72136 27.9053 7.87598C28.0282 8.08533 28.0842 8.24516 28.0908 8.40332C28.0802 8.40278 28.0693 8.40466 28.0596 8.40332L28.0547 8.40234L27.9727 8.37207C27.8613 8.31365 27.6665 8.1572 27.4121 7.7832C27.1841 7.44796 26.9877 7.05558 26.8262 6.69629L26.6758 6.35156C26.56 6.07678 26.4634 5.82749 26.3877 5.59766ZM46.9717 1.70508C47.0396 1.96338 47.0885 2.25264 47.1143 2.57031C47.1746 3.315 47.1095 4.10845 47.0078 4.78516V4.78711C46.9028 5.49269 46.8027 5.94003 46.6309 6.23047C46.5456 6.3744 46.4361 6.49808 46.1865 6.56543C46.1615 6.52711 46.1371 6.48905 46.1162 6.45312L46.1152 6.45117L46.0977 6.41016C46.0805 6.35455 46.0694 6.24709 46.1143 6.02637C46.1437 5.88144 46.1883 5.72675 46.2461 5.5332C46.2989 5.35608 46.3688 5.12826 46.417 4.90527L46.418 4.9043C46.5032 4.50829 46.5609 4.08935 46.6133 3.69629C46.6673 3.29081 46.715 2.91103 46.7803 2.53809C46.8343 2.22914 46.8968 1.95156 46.9717 1.70508ZM37.2666 2.23242C37.3984 2.70858 37.494 3.22779 37.6396 3.85254V3.85352C37.7951 4.51954 37.9275 5.0395 37.9717 5.57617L37.9854 5.80762C37.9859 5.82657 37.9816 5.84047 37.9805 5.85059C37.9717 5.8533 37.9598 5.85865 37.9434 5.86035C37.8878 5.86602 37.8293 5.8534 37.7881 5.83008C37.7563 5.81208 37.7337 5.7885 37.7178 5.74316C37.5102 5.15146 37.3234 4.35651 37.252 3.56641C37.2067 3.06614 37.2126 2.6124 37.2666 2.23242Z" stroke="#F18028" stroke-width="2"/>
</svg>
