<svg width="190" height="190" viewBox="0 0 190 190" fill="none" xmlns="http://www.w3.org/2000/svg">
<circle cx="95" cy="95" r="94.5" stroke="#FFBD11"/>
<path d="M100.712 110.761C105.618 107.007 112.698 101.131 115.649 96.4318C117.856 92.9209 118.575 88.5713 117.614 84.527C115.563 75.3145 104.202 71.5501 97.1258 77.7237C96.7278 78.0687 96.3609 78.451 95.9843 78.8437C95.8307 79.0039 95.6753 79.1658 95.5155 79.3276C95.3557 79.1658 95.2003 79.0039 95.0466 78.8436C94.67 78.451 94.3032 78.0687 93.9052 77.7237C86.8287 71.5501 75.4681 75.3145 73.4165 84.527C72.4563 88.5713 73.1745 92.9209 75.3822 96.4318C78.3326 101.131 85.4126 107.007 90.3188 110.761C91.6859 111.807 95.5155 114.531 95.5155 114.531C95.5155 114.531 99.3451 111.807 100.712 110.761Z" fill="#FFBD11"/>
<path d="M28.314 69.2804L13.7871 59.6042L14.9588 57.845L27.9252 66.4818L32.4231 59.7291L33.9837 60.7685L28.314 69.2804Z" fill="#FFBD11"/>
<path d="M43.2087 51.4018C42.3339 52.1964 41.3773 52.6854 40.3387 52.8688C39.3044 53.0484 38.2622 52.9319 37.2121 52.5195C36.1662 52.1032 35.1886 51.3946 34.2794 50.3936C33.3626 49.3842 32.7452 48.3369 32.4273 47.2517C32.1136 46.1627 32.0956 45.112 32.3736 44.0997C32.6557 43.0835 33.2341 42.1781 34.1089 41.3835C34.9837 40.5889 35.9383 40.1018 36.9726 39.9223C38.0111 39.7388 39.0552 39.8574 40.105 40.2779C41.1589 40.6945 42.1443 41.4076 43.0612 42.4169C43.9704 43.4179 44.5799 44.4608 44.8898 45.5456C45.2039 46.6266 45.2199 47.6752 44.9378 48.6914C44.6599 49.7037 44.0835 50.6072 43.2087 51.4018ZM41.9939 50.0643C42.6584 49.4607 43.0505 48.7938 43.17 48.0634C43.2896 47.3331 43.2002 46.5968 42.9021 45.8544C42.6039 45.112 42.1606 44.417 41.5723 43.7693C40.984 43.1216 40.3327 42.6117 39.6186 42.2395C38.9044 41.8673 38.1762 41.7036 37.4339 41.7484C36.6917 41.7932 35.9883 42.1174 35.3238 42.721C34.6592 43.3246 34.2691 43.9937 34.1534 44.7282C34.0377 45.4627 34.1308 46.2033 34.4328 46.9499C34.7348 47.6964 35.18 48.3935 35.7683 49.0412C36.3566 49.6889 37.0059 50.1968 37.7163 50.5647C38.4266 50.9327 39.151 51.0922 39.8895 51.0432C40.6279 50.9942 41.3294 50.6679 41.9939 50.0643Z" fill="#FFBD11"/>
<path d="M57.3388 25.9798L59.2505 39.8056L57.4473 40.7711L47.0003 31.5155L48.9237 30.4856L57.0336 37.9763L57.1538 37.9119L55.4154 27.0097L57.3388 25.9798Z" fill="#FFBD11"/>
<path d="M76.0749 33.6668C74.8534 33.9815 73.7302 33.9833 72.7055 33.6722C71.6848 33.3543 70.8097 32.77 70.0802 31.9194C69.3547 31.0619 68.8247 29.9839 68.4903 28.6853C68.1558 27.3868 68.0976 26.1814 68.3157 25.0691C68.5378 23.9499 69.0038 23.0026 69.7135 22.2272C70.4273 21.4449 71.3564 20.9064 72.5009 20.6116C73.1611 20.4415 73.8415 20.3836 74.5419 20.4379C75.2424 20.4921 75.9205 20.6988 76.5763 21.058C77.2306 21.4116 77.8188 21.9524 78.3407 22.6805C78.8627 23.4085 79.276 24.364 79.5807 25.547L79.7933 26.3724L70.0214 28.8894L69.5877 27.2057L77.3788 25.1989C77.1946 24.4836 76.8871 23.8822 76.4565 23.3947C76.0313 22.9057 75.5155 22.5663 74.9092 22.3763C74.3084 22.1849 73.6558 22.1799 72.9515 22.3613C72.1757 22.5611 71.5541 22.9266 71.0865 23.4577C70.6231 23.9819 70.3187 24.5884 70.1734 25.2771C70.0281 25.9658 70.0455 26.6595 70.2255 27.3583L70.5146 28.4808C70.7612 29.4381 71.1353 30.2072 71.6369 30.7879C72.1426 31.3617 72.7373 31.7454 73.4208 31.939C74.1029 32.1271 74.8374 32.1198 75.6242 31.9171C76.1359 31.7853 76.5796 31.5947 76.9555 31.3454C77.3354 31.0891 77.6391 30.7762 77.8666 30.4066C78.0927 30.0316 78.2315 29.6027 78.2832 29.12L80.3011 29.1635C80.2674 29.8528 80.079 30.4997 79.7361 31.1044C79.3917 31.7036 78.9103 32.2265 78.292 32.6733C77.6723 33.1145 76.9332 33.4457 76.0749 33.6668Z" fill="#FFBD11"/>
<path d="M88.8191 31.2886L87.9946 18.2237L90.0019 18.097L90.8264 31.1619L88.8191 31.2886ZM88.8778 15.9818C88.4866 16.0065 88.1408 15.8945 87.8404 15.6459C87.5457 15.3969 87.3866 15.0853 87.363 14.711C87.3394 14.3368 87.4581 14.0076 87.7191 13.7236C87.9858 13.4391 88.3148 13.2846 88.7061 13.2599C89.0973 13.2352 89.4403 13.3474 89.735 13.5963C90.0353 13.845 90.1973 14.1564 90.2209 14.5307C90.2446 14.9049 90.123 15.2342 89.8563 15.5186C89.5953 15.8027 89.2691 15.9571 88.8778 15.9818Z" fill="#FFBD11"/>
<path d="M109.752 22.0766L107.897 22.3685C107.82 22.0559 107.689 21.7454 107.503 21.4368C107.323 21.1233 107.058 20.8511 106.708 20.6202C106.358 20.3892 105.893 20.2388 105.312 20.1689C104.516 20.0732 103.831 20.1767 103.257 20.4796C102.689 20.7775 102.371 21.2057 102.304 21.7642C102.244 22.2606 102.378 22.6744 102.704 23.0055C103.031 23.3367 103.566 23.6443 104.31 23.9284L106.182 24.6344C107.31 25.0563 108.124 25.592 108.624 26.2416C109.125 26.8855 109.32 27.6616 109.211 28.5699C109.121 29.3145 108.827 29.9543 108.328 30.4894C107.834 31.0252 107.186 31.4165 106.384 31.6633C105.581 31.9102 104.675 31.9728 103.666 31.8513C102.34 31.6918 101.277 31.2721 100.478 30.5922C99.6785 29.9123 99.2296 29.0056 99.1313 27.8721L101.084 27.6263C101.18 28.3475 101.458 28.9132 101.918 29.3234C102.384 29.7342 103.026 29.9888 103.844 30.0872C104.774 30.1992 105.537 30.0907 106.132 29.7617C106.733 29.4277 107.067 28.9814 107.134 28.423C107.189 27.9717 107.076 27.5747 106.797 27.2321C106.518 26.8838 106.061 26.5941 105.425 26.3631L103.32 25.5948C102.163 25.1695 101.342 24.6271 100.854 23.9676C100.374 23.3031 100.187 22.5224 100.295 21.6254C100.383 20.8921 100.667 20.2681 101.147 19.7536C101.632 19.2397 102.252 18.8651 103.008 18.6297C103.768 18.3951 104.606 18.3327 105.519 18.4427C106.806 18.5974 107.781 19.001 108.447 19.6533C109.118 20.3064 109.553 21.1141 109.752 22.0766Z" fill="#FFBD11"/>
<path d="M123.647 18.1347L118.447 34.7966L116.527 34.1974L121.727 17.5354L123.647 18.1347Z" fill="#FFBD11"/>
<path d="M130.971 40.4443C129.933 39.8799 129.156 39.1376 128.641 38.2173C128.131 37.2998 127.898 36.2774 127.941 35.15C127.99 34.0254 128.337 32.869 128.983 31.6809C129.634 30.4828 130.42 29.5551 131.34 28.8976C132.265 28.2428 133.251 27.88 134.299 27.8091C135.351 27.7409 136.396 27.989 137.435 28.5534C138.473 29.1178 139.247 29.8588 139.757 30.7763C140.273 31.6965 140.504 32.7215 140.453 33.8511C140.407 34.9835 140.058 36.1487 139.406 37.3468C138.761 38.5348 137.977 39.4538 137.054 40.1036C136.137 40.7561 135.152 41.1164 134.1 41.1846C133.052 41.2555 132.01 41.0087 130.971 40.4443ZM131.834 38.8569C132.623 39.2856 133.382 39.4362 134.111 39.3086C134.84 39.181 135.506 38.8543 136.108 38.3283C136.711 37.8023 137.221 37.1549 137.639 36.3862C138.057 35.6174 138.324 34.8346 138.441 34.0377C138.557 33.2408 138.472 32.4993 138.185 31.8132C137.898 31.127 137.361 30.5696 136.572 30.1409C135.783 29.7121 135.023 29.564 134.291 29.6966C133.56 29.8292 132.891 30.1609 132.285 30.6919C131.68 31.2229 131.168 31.8727 130.75 32.6415C130.333 33.4103 130.067 34.1906 129.953 34.9825C129.84 35.7744 129.928 36.5109 130.217 37.1921C130.506 37.8732 131.045 38.4281 131.834 38.8569Z" fill="#FFBD11"/>
<path d="M159.629 45.4161L147.203 51.7733L145.698 50.3885L150.998 37.4766L152.604 38.9537L148.201 49.0777L148.301 49.17L158.023 43.939L159.629 45.4161Z" fill="#FFBD11"/>
<path d="M158.538 65.6385C157.839 64.5887 157.467 63.5288 157.423 62.4588C157.388 61.3904 157.651 60.3717 158.214 59.4028C158.785 58.4354 159.628 57.5801 160.744 56.8367C161.86 56.0934 162.979 55.6415 164.101 55.4812C165.231 55.3225 166.279 55.4506 167.245 55.8654C168.219 56.2818 169.033 56.9818 169.688 57.9654C170.066 58.5329 170.345 59.1563 170.524 59.8355C170.704 60.5148 170.732 61.2231 170.609 61.9606C170.49 62.6949 170.173 63.4283 169.658 64.1609C169.142 64.8935 168.376 65.5983 167.359 66.2756L166.65 66.748L161.056 58.3497L162.503 57.3858L166.963 64.0818C167.578 63.6723 168.044 63.184 168.363 62.6168C168.685 62.0544 168.835 61.4556 168.815 60.8205C168.798 60.1902 168.588 59.5724 168.185 58.9671C167.741 58.3003 167.191 57.8336 166.535 57.5671C165.888 57.3021 165.215 57.2143 164.517 57.3039C163.819 57.3934 163.169 57.6382 162.569 58.0382L161.604 58.6808C160.781 59.2289 160.178 59.8353 159.795 60.5002C159.42 61.1666 159.253 61.8544 159.295 62.5636C159.342 63.2696 159.591 63.9607 160.042 64.6369C160.334 65.0767 160.661 65.433 161.02 65.7057C161.387 65.9801 161.782 66.1638 162.206 66.257C162.635 66.3469 163.085 66.3369 163.558 66.2268L164.181 68.1464C163.52 68.3415 162.847 68.3767 162.163 68.252C161.484 68.1241 160.831 67.8417 160.206 67.405C159.585 66.965 159.029 66.3762 158.538 65.6385Z" fill="#FFBD11"/>
<path d="M161.686 120.416L176.213 130.092L175.041 131.851L162.075 123.214L157.577 129.967L156.016 128.928L161.686 120.416Z" fill="#FFBD11"/>
<path d="M146.791 138.295C147.666 137.5 148.623 137.011 149.661 136.827C150.696 136.648 151.738 136.764 152.788 137.177C153.834 137.593 154.811 138.302 155.721 139.303C156.637 140.312 157.255 141.359 157.573 142.445C157.886 143.534 157.904 144.584 157.626 145.597C157.344 146.613 156.766 147.518 155.891 148.313C155.016 149.107 154.062 149.594 153.027 149.774C151.989 149.957 150.945 149.839 149.895 149.418C148.841 149.002 147.856 148.289 146.939 147.279C146.03 146.278 145.42 145.235 145.11 144.151C144.796 143.07 144.78 142.021 145.062 141.005C145.34 139.993 145.916 139.089 146.791 138.295ZM148.006 139.632C147.342 140.236 146.95 140.903 146.83 141.633C146.71 142.363 146.8 143.1 147.098 143.842C147.396 144.584 147.839 145.279 148.428 145.927C149.016 146.575 149.667 147.085 150.381 147.457C151.096 147.829 151.824 147.993 152.566 147.948C153.308 147.903 154.012 147.579 154.676 146.975C155.341 146.372 155.731 145.703 155.847 144.968C155.962 144.234 155.869 143.493 155.567 142.746C155.265 142 154.82 141.303 154.232 140.655C153.643 140.007 152.994 139.5 152.284 139.132C151.573 138.764 150.849 138.604 150.111 138.653C149.372 138.702 148.671 139.028 148.006 139.632Z" fill="#FFBD11"/>
<path d="M132.661 163.716L130.749 149.891L132.553 148.925L143 158.181L141.076 159.211L132.966 151.72L132.846 151.784L134.585 162.687L132.661 163.716Z" fill="#FFBD11"/>
<path d="M113.925 156.029C115.147 155.715 116.27 155.713 117.295 156.024C118.315 156.342 119.19 156.926 119.92 157.777C120.645 158.634 121.175 159.712 121.51 161.011C121.844 162.309 121.902 163.515 121.684 164.627C121.462 165.746 120.996 166.694 120.287 167.469C119.573 168.251 118.644 168.79 117.499 169.085C116.839 169.255 116.159 169.313 115.458 169.258C114.758 169.204 114.08 168.997 113.424 168.638C112.769 168.285 112.181 167.744 111.659 167.016C111.137 166.288 110.724 165.332 110.419 164.149L110.207 163.324L119.979 160.807L120.412 162.491L112.621 164.497C112.805 165.213 113.113 165.814 113.544 166.302C113.969 166.791 114.484 167.13 115.091 167.32C115.692 167.511 116.344 167.516 117.048 167.335C117.824 167.135 118.446 166.77 118.913 166.239C119.377 165.714 119.681 165.108 119.827 164.419C119.972 163.731 119.955 163.037 119.775 162.338L119.485 161.216C119.239 160.258 118.865 159.489 118.363 158.908C117.857 158.335 117.263 157.951 116.579 157.757C115.897 157.569 115.163 157.577 114.376 157.779C113.864 157.911 113.42 158.102 113.045 158.351C112.665 158.607 112.361 158.92 112.133 159.29C111.907 159.665 111.768 160.094 111.717 160.576L109.699 160.533C109.733 159.844 109.921 159.197 110.264 158.592C110.608 157.993 111.09 157.47 111.708 157.023C112.328 156.582 113.067 156.251 113.925 156.029Z" fill="#FFBD11"/>
<path d="M101.181 158.408L102.005 171.473L99.9981 171.599L99.1736 158.534L101.181 158.408ZM101.122 173.715C101.513 173.69 101.859 173.802 102.16 174.05C102.454 174.299 102.613 174.611 102.637 174.985C102.661 175.36 102.542 175.689 102.281 175.973C102.014 176.257 101.685 176.412 101.294 176.436C100.903 176.461 100.56 176.349 100.265 176.1C99.9647 175.851 99.8027 175.54 99.7791 175.166C99.7554 174.791 99.877 174.462 100.144 174.178C100.405 173.894 100.731 173.739 101.122 173.715Z" fill="#FFBD11"/>
<path d="M80.248 167.62L82.103 167.328C82.1798 167.64 82.3113 167.951 82.4973 168.259C82.6771 168.573 82.9419 168.845 83.2918 169.076C83.6417 169.307 84.1072 169.458 84.6883 169.527C85.4837 169.623 86.1685 169.52 86.7429 169.217C87.311 168.919 87.6286 168.491 87.6958 167.932C87.7556 167.436 87.6222 167.022 87.2958 166.691C86.9694 166.36 86.4341 166.052 85.69 165.768L83.8178 165.062C82.6896 164.64 81.8756 164.104 81.3758 163.455C80.8753 162.811 80.6796 162.035 80.7889 161.126C80.8785 160.382 81.173 159.742 81.6723 159.207C82.166 158.671 82.814 158.28 83.6162 158.033C84.4185 157.786 85.3245 157.723 86.3343 157.845C87.66 158.004 88.7225 158.424 89.522 159.104C90.3215 159.784 90.7704 160.691 90.8687 161.824L88.9162 162.07C88.8199 161.349 88.5417 160.783 88.0817 160.373C87.6161 159.962 86.9743 159.707 86.1564 159.609C85.2256 159.497 84.4628 159.606 83.8681 159.935C83.2671 160.269 82.933 160.715 82.8658 161.273C82.8115 161.725 82.924 162.122 83.2032 162.464C83.4818 162.812 83.9391 163.102 84.5751 163.333L86.6803 164.102C87.8366 164.527 88.6584 165.069 89.1456 165.729C89.6264 166.393 89.8129 167.174 89.705 168.071C89.6168 168.804 89.3328 169.428 88.8531 169.943C88.3678 170.457 87.7476 170.831 86.9925 171.067C86.2317 171.301 85.3944 171.364 84.4806 171.254C83.1944 171.099 82.2186 170.695 81.5531 170.043C80.882 169.39 80.4469 168.582 80.248 167.62Z" fill="#FFBD11"/>
<path d="M66.3527 171.562L71.5529 154.9L73.473 155.499L68.2728 172.161L66.3527 171.562Z" fill="#FFBD11"/>
<path d="M59.0288 149.252C60.0672 149.816 60.8439 150.559 61.359 151.479C61.8691 152.396 62.1023 153.419 62.0586 154.546C62.0099 155.671 61.6626 156.827 61.0168 158.015C60.3655 159.213 59.5799 160.141 58.6599 160.799C57.7349 161.453 56.7487 161.816 55.7013 161.887C54.6489 161.955 53.6035 161.707 52.5652 161.143C51.5269 160.578 50.7526 159.837 50.2425 158.92C49.7274 158 49.4956 156.975 49.547 155.845C49.5934 154.713 49.9423 153.548 50.5935 152.35C51.2393 151.161 52.0234 150.243 52.9457 149.593C53.863 148.94 54.8479 148.58 55.9002 148.512C56.9476 148.441 57.9905 148.688 59.0288 149.252ZM58.1659 150.839C57.3772 150.411 56.6183 150.26 55.8894 150.388C55.1604 150.515 54.4945 150.842 53.8917 151.368C53.2889 151.894 52.7786 152.541 52.3607 153.31C51.9428 154.079 51.6757 154.862 51.5594 155.659C51.4431 156.456 51.5283 157.197 51.815 157.883C52.1017 158.569 52.6394 159.127 53.4281 159.555C54.2168 159.984 54.977 160.132 55.7087 160C56.4404 159.867 57.109 159.535 57.7145 159.004C58.32 158.473 58.8317 157.824 59.2496 157.055C59.6675 156.286 59.9332 155.506 60.0468 154.714C60.1604 153.922 60.0725 153.185 59.7831 152.504C59.4937 151.823 58.9546 151.268 58.1659 150.839Z" fill="#FFBD11"/>
<path d="M30.371 144.28L42.7965 137.923L44.3019 139.308L39.0019 152.22L37.3962 150.743L41.7991 140.619L41.6988 140.526L31.9768 145.757L30.371 144.28Z" fill="#FFBD11"/>
<path d="M31.4622 124.058C32.1615 125.108 32.533 126.167 32.5767 127.237C32.6125 128.306 32.3489 129.325 31.7859 130.294C31.2151 131.261 30.3717 132.116 29.2557 132.86C28.1397 133.603 27.0206 134.055 25.8986 134.215C24.7686 134.374 23.7207 134.246 22.7549 133.831C21.7812 133.414 20.9667 132.714 20.3116 131.731C19.9336 131.163 19.6549 130.54 19.4755 129.861C19.2962 129.181 19.2681 128.473 19.3913 127.736C19.5098 127.001 19.8268 126.268 20.3424 125.535C20.858 124.803 21.6242 124.098 22.6409 123.421L23.3502 122.948L28.9442 131.347L27.4972 132.31L23.0371 125.614C22.4223 126.024 21.9557 126.512 21.6371 127.079C21.3154 127.642 21.1647 128.241 21.1849 128.876C21.202 129.506 21.4122 130.124 21.8153 130.729C22.2595 131.396 22.8092 131.863 23.4647 132.129C24.1123 132.394 24.7851 132.482 25.4833 132.392C26.1814 132.303 26.8307 132.058 27.4313 131.658L28.396 131.015C29.2188 130.467 29.8218 129.861 30.205 129.196C30.5803 128.53 30.7468 127.842 30.7046 127.133C30.6576 126.427 30.4089 125.736 29.9585 125.059C29.6655 124.62 29.3395 124.263 28.9803 123.991C28.6132 123.716 28.2178 123.532 27.7939 123.439C27.3653 123.349 26.9146 123.359 26.4418 123.47L25.8185 121.55C26.4805 121.355 27.1534 121.32 27.8372 121.444C28.5164 121.572 29.1687 121.855 29.7941 122.291C30.4148 122.731 30.9709 123.32 31.4622 124.058Z" fill="#FFBD11"/>
</svg>
