<svg width="313" height="157" viewBox="0 0 313 157" fill="none" xmlns="http://www.w3.org/2000/svg">
<path d="M156.5 1C197.741 1 237.293 17.3837 266.454 46.5459C295.381 75.471 311.732 114.62 311.994 155.5H1.00586C1.26841 114.62 17.6189 75.4704 46.5449 46.5439C75.7069 17.3831 115.259 1 156.5 1Z" stroke="#FFD22E" stroke-width="2"/>
<path d="M156.5 41.1636C187.088 41.1636 216.425 53.3151 238.054 74.9448C259.448 96.3379 271.569 125.272 271.831 155.5H41.1694C41.4313 125.272 53.551 96.3379 74.9448 74.9438C96.5745 53.3151 125.911 41.1637 156.5 41.1636Z" stroke="#FFD22E" stroke-width="2"/>
<path d="M156.5 86.8673C174.968 86.8673 192.679 94.204 205.737 107.263C218.56 120.085 225.865 137.394 226.125 155.5H86.875C87.1347 137.394 94.439 120.085 107.262 107.262C120.32 94.2036 138.032 86.8673 156.5 86.8673Z" stroke="#FFD22E" stroke-width="2"/>
</svg>
