<svg width="232" height="116" viewBox="0 0 232 116" fill="none" xmlns="http://www.w3.org/2000/svg">
<path d="M116 1C146.5 1 175.75 13.1167 197.316 34.6836C218.648 56.0137 230.732 84.8617 230.994 115H1.00586C1.26761 84.8618 13.352 56.0137 34.6826 34.6826C56.2494 13.1167 85.5004 1 116 1Z" stroke="#AA3ED8" stroke-width="2"/>
<path d="M116 30.7694C138.604 30.7695 160.283 39.7495 176.266 55.7333C192.014 71.4807 200.963 92.7571 201.224 115H30.7766C31.0372 92.7571 39.9848 71.4805 55.7327 55.7323C71.7164 39.7491 93.3961 30.7694 116 30.7694Z" stroke="#AA3ED8" stroke-width="2"/>
<path d="M116 64.646C129.619 64.646 142.682 70.0564 152.312 79.687H152.313C161.708 89.0813 167.085 101.742 167.343 114.999H64.6567C64.9106 101.954 70.1216 89.4876 79.2388 80.1411L79.687 79.687C89.3177 70.0567 102.38 64.6461 116 64.646Z" stroke="#AA3ED8" stroke-width="2"/>
</svg>
