<svg width="38" height="194" viewBox="0 0 38 194" fill="none" xmlns="http://www.w3.org/2000/svg">
<g opacity="0.59">
<path d="M35.5449 192.82H1.73047L10.1758 178.168L10.1748 178.167L18.6543 163.515L35.5449 192.82Z" stroke="#AA3ED8" stroke-width="2"/>
<path d="M18.6568 129.213L27.9664 145.365L37.2759 161.516H18.6568H0L9.30977 145.365L18.6568 129.213Z" fill="#3E73E1"/>
<path d="M35.5449 128.213H1.73047L10.1758 113.561L10.1748 113.56L18.6543 98.9088L35.5449 128.213Z" stroke="#46BE4A" stroke-width="2"/>
<path d="M18.6568 64.6065L27.9664 80.7582L37.2759 96.9098H18.6568H0L9.30977 80.7582L18.6568 64.6065Z" fill="#FFD22E"/>
<path d="M35.5449 63.607H1.73047L10.1758 48.9547L10.1748 48.9537L18.6543 34.3023L35.5449 63.607Z" stroke="#FD831F" stroke-width="2"/>
<path d="M18.6568 0L27.9664 16.1516L37.2759 32.3033H18.6568H0L9.30977 16.1516L18.6568 0Z" fill="#F2505F"/>
</g>
</svg>
